<svg version="1.1" id="Layer_1" xmlns="http://www.w3.org/2000/svg" xmlns:xlink="http://www.w3.org/1999/xlink" x="0px" y="0px"
	 width="100%" viewBox="0 0 329 185" enable-background="new 0 0 329 185" xml:space="preserve" class="svgs">
<path fill="#FED3FF" opacity="1.000000" stroke="none" 
	d="
M113.000000,186.000000 
	C108.643097,186.000000 104.286201,186.000000 99.466499,185.610855 
	C99.687508,182.820724 100.371315,180.419754 101.329750,177.832581 
	C104.415840,174.188644 107.210640,170.717178 110.041664,167.275497 
	C121.826317,152.948914 122.043350,144.817108 110.982452,131.671646 
	C112.838959,121.923782 110.410912,113.577690 104.682426,106.246567 
	C97.312782,96.815132 87.154053,90.879120 76.843842,84.699203 
	C64.123856,74.599983 51.562080,64.799759 38.848465,54.700027 
	C37.166180,52.458744 35.598221,50.545212 34.111290,48.570667 
	C23.487379,34.462791 15.497626,19.346306 16.000000,1.000000 
	C17.714357,1.000000 19.428717,1.000000 21.571293,1.456080 
	C22.349438,6.024631 22.364012,10.198665 23.105768,14.239203 
	C26.860460,34.691978 39.245892,47.424721 58.887569,53.363991 
	C60.416332,53.826256 62.279228,53.183521 64.228600,53.203968 
	C64.981171,53.902069 65.491974,54.450565 66.025345,55.346569 
	C71.579033,62.760834 77.495155,69.386055 86.174141,73.365051 
	C92.246773,75.382561 98.120781,77.105583 104.399506,78.950363 
	C110.200417,79.374573 115.596626,79.677040 121.034134,80.330063 
	C123.312462,82.527679 125.270233,85.169441 127.839096,86.072105 
	C135.410873,88.732727 143.108536,91.694145 150.982254,92.618408 
	C156.805466,93.301971 162.981277,90.981720 169.000946,90.387978 
	C169.956787,97.175446 175.294601,102.407684 182.076355,102.909378 
	C190.234055,103.512878 198.247116,102.788841 205.645233,98.706924 
	C210.475983,96.041550 212.849289,91.275185 211.789978,85.866669 
	C211.537476,84.577477 211.261124,83.292953 211.373383,82.051758 
	C220.014465,83.490570 225.987793,88.777382 232.148071,94.303757 
	C245.119614,111.472374 260.817230,123.553688 283.064636,125.346558 
	C284.115601,129.112869 285.000183,132.547211 285.430786,135.987671 
	C278.801056,136.573761 272.316315,136.185837 266.543732,138.028625 
	C261.596313,139.608032 257.464111,143.741028 252.593979,146.773895 
	C250.475754,146.562531 248.734909,146.321976 246.528015,146.052460 
	C233.706604,144.907806 222.343369,146.382477 214.525360,157.937744 
	C210.647598,154.705276 207.229279,151.351471 203.526917,148.347809 
	C194.543137,141.059509 183.858307,139.877167 172.967514,141.106140 
	C159.195679,142.660202 146.933746,147.995087 136.697891,158.149200 
	C130.771530,164.856583 125.044182,171.330704 119.618790,178.048676 
	C118.730545,179.148544 119.172714,181.322845 118.740158,183.267960 
	C116.653542,184.356903 114.826767,185.178452 113.000000,186.000000 
z"/>
<path fill="#FEA1AF" opacity="1.000000" stroke="none" 
	d="
M285.884766,135.981552 
	C285.000183,132.547211 284.115601,129.112869 282.959473,125.008621 
	C281.328888,121.211304 279.502319,118.197174 278.711060,114.932152 
	C277.207428,108.727554 274.120758,102.577744 277.266724,95.993782 
	C285.109406,97.700523 292.561798,99.345978 300.469849,100.993507 
	C304.045929,100.995583 307.166412,100.995583 310.639984,100.995583 
	C310.411804,102.352921 310.430756,103.190193 310.129852,103.889870 
	C304.279816,117.490753 305.168488,131.234253 308.786682,145.195633 
	C311.652069,156.252121 313.927124,167.455139 312.923889,179.270142 
	C312.538574,180.015076 312.274078,180.507126 311.643097,181.043488 
	C308.184448,182.725204 305.092224,184.362610 302.000000,186.000000 
	C293.312439,186.000000 284.624878,186.000000 275.468658,185.531403 
	C274.664978,174.443863 274.329956,163.824951 274.334045,153.006195 
	C280.001282,152.422165 284.228943,150.291519 285.488495,144.745590 
	C286.125885,141.938995 285.783936,138.910004 285.884766,135.981552 
z"/>
<path fill="#FECCFE" opacity="1.000000" stroke="none" 
	d="
M330.000000,24.000000 
	C330.000000,31.020948 330.000000,38.041897 329.531342,45.531422 
	C310.959076,46.000015 292.854736,45.925182 274.752716,46.094360 
	C272.478516,46.115612 270.216309,47.422745 267.677795,47.917023 
	C261.652588,38.811008 256.447906,29.858973 264.445038,19.192978 
	C270.583466,14.602195 277.248138,13.034171 284.320251,14.170280 
	C288.956512,14.915079 293.441528,16.601231 298.311951,18.046759 
	C308.501465,23.330923 319.068146,24.657789 330.000000,24.000000 
z"/>
<path fill="#FFB2EA" opacity="1.000000" stroke="none" 
	d="
M1.000000,158.000000 
	C1.000000,149.645767 1.000000,141.291534 1.453304,132.466965 
	C8.938784,132.994141 15.970960,133.991653 23.329723,135.136292 
	C27.283424,137.188797 31.338863,138.572006 34.441341,141.116943 
	C39.623062,145.367462 44.195568,150.360641 49.149193,155.298767 
	C49.852230,156.038605 50.430607,156.520859 51.010216,157.408615 
	C53.674301,167.209427 56.337151,176.604706 59.000000,186.000000 
	C53.977909,186.000000 48.955814,186.000000 43.316196,185.702576 
	C39.060455,182.032410 35.495304,178.576477 31.769518,175.303436 
	C22.741920,167.372803 13.026920,160.618210 1.000000,158.000000 
z"/>
<path fill="#FFD4FF" opacity="1.000000" stroke="none" 
	d="
M113.468658,186.000000 
	C114.826767,185.178452 116.653542,184.356903 119.099899,183.225525 
	C125.009529,180.514786 130.335419,178.189453 135.583084,175.699234 
	C153.445679,167.222733 171.855469,161.052277 192.375488,161.999207 
	C193.500244,161.999695 194.250092,161.999481 195.362488,162.159180 
	C201.140869,163.216064 206.556671,164.113037 212.022385,165.243317 
	C212.072296,165.476608 212.166458,165.944382 212.107574,166.395752 
	C213.365799,173.231415 214.682892,179.615707 216.000000,186.000000 
	C181.979111,186.000000 147.958206,186.000000 113.468658,186.000000 
z"/>
<path fill="#FFB9C4" opacity="1.000000" stroke="none" 
	d="
M313.044708,179.017258 
	C313.927124,167.455139 311.652069,156.252121 308.786682,145.195633 
	C305.168488,131.234253 304.279816,117.490753 310.129852,103.889870 
	C310.430756,103.190193 310.411804,102.352921 310.639984,100.995583 
	C307.166412,100.995583 304.045929,100.995583 300.766602,100.711182 
	C304.408386,100.290291 308.208984,100.153809 312.313019,100.301514 
	C318.410950,100.723801 324.205475,100.861900 330.000000,101.000000 
	C330.000000,125.354225 330.000000,149.708450 329.584412,174.529907 
	C323.794128,176.337173 318.419403,177.677216 313.044708,179.017258 
z"/>
<path fill="#FECFFF" opacity="1.000000" stroke="none" 
	d="
M15.527336,1.000000 
	C15.497626,19.346306 23.487379,34.462791 34.111290,48.570667 
	C35.598221,50.545212 37.166180,52.458744 38.431805,54.700569 
	C35.011993,54.673737 33.617832,55.691509 34.108463,59.218178 
	C34.364277,61.056942 33.408909,63.064213 32.619766,64.948181 
	C27.827774,63.948349 23.416620,62.995693 18.537403,62.028191 
	C12.379559,62.008888 6.689779,62.004444 1.000000,62.000000 
	C1.000000,41.786594 1.000000,21.573193 1.000000,1.000000 
	C5.678751,1.000000 10.366713,1.000000 15.527336,1.000000 
z"/>
<path fill="#FEA4AF" opacity="1.000000" stroke="none" 
	d="
M330.000000,56.000000 
	C330.000000,65.354225 330.000000,74.708458 329.633362,84.534470 
	C326.174164,87.334244 323.081543,89.662231 319.607574,92.158249 
	C313.817474,92.550858 308.408752,92.775429 302.708527,92.719147 
	C294.309326,90.641022 286.201599,88.843765 278.098511,86.683258 
	C280.668549,82.100060 282.743195,77.466766 285.887207,73.734161 
	C297.375824,60.094765 313.012482,56.245407 330.000000,56.000000 
z"/>
<path fill="#FFC7FE" opacity="1.000000" stroke="none" 
	d="
M330.000000,55.545891 
	C313.012482,56.245407 297.375824,60.094765 285.887207,73.734161 
	C282.743195,77.466766 280.668549,82.100060 278.039734,86.657150 
	C277.976318,86.994286 277.853516,86.961716 277.482361,86.965530 
	C271.404175,83.974503 265.697205,80.979668 260.167053,77.700531 
	C266.147186,73.630264 269.445923,68.473663 268.990448,61.344685 
	C268.708832,56.936958 268.300171,52.537346 267.948547,48.134094 
	C270.216309,47.422745 272.478516,46.115612 274.752716,46.094360 
	C292.854736,45.925182 310.959076,46.000015 329.531342,46.000000 
	C330.000000,49.030594 330.000000,52.061188 330.000000,55.545891 
z"/>
<path fill="#DC6BCE" opacity="1.000000" stroke="none" 
	d="
M267.677795,47.917019 
	C268.300171,52.537346 268.708832,56.936958 268.990448,61.344685 
	C269.445923,68.473663 266.147186,73.630264 259.843262,77.727753 
	C258.911041,78.074356 258.479462,78.109428 257.855896,77.853195 
	C253.775543,75.036819 249.887161,72.511757 246.057938,69.573196 
	C246.411392,67.046249 246.939697,64.935036 246.959854,62.818977 
	C247.051468,53.199368 247.197464,43.572075 246.889755,33.961441 
	C246.786133,30.724943 245.399521,27.529522 244.435944,23.659260 
	C248.120026,21.496218 247.322571,17.293045 245.994766,12.607357 
	C248.335037,8.494199 250.667511,4.747100 253.000000,1.000001 
	C256.030609,1.000000 259.061188,1.000000 262.545898,1.433017 
	C263.387299,7.718786 263.774597,13.571538 264.161865,19.424292 
	C256.447906,29.858973 261.652588,38.811008 267.677795,47.917019 
z"/>
<path fill="#E682DD" opacity="1.000000" stroke="none" 
	d="
M252.531342,1.000001 
	C250.667511,4.747100 248.335037,8.494199 245.697006,12.767756 
	C243.905441,15.239572 242.350037,17.136250 240.945099,19.138508 
	C233.942123,29.118807 226.561951,31.946228 214.681061,28.866220 
	C208.242996,25.477070 202.122406,22.234930 196.001282,18.525303 
	C196.000473,12.371877 196.000229,6.685938 196.000000,1.000000 
	C214.687561,1.000000 233.375122,1.000000 252.531342,1.000001 
z"/>
<path fill="#FFDDFE" opacity="1.000000" stroke="none" 
	d="
M63.986828,53.054363 
	C62.279228,53.183521 60.416332,53.826256 58.887569,53.363991 
	C39.245892,47.424721 26.860460,34.691978 23.105768,14.239203 
	C22.364012,10.198665 22.349438,6.024631 21.999756,1.456080 
	C30.687563,1.000000 39.375126,1.000000 48.530308,1.425727 
	C49.334904,3.626639 49.883591,5.390897 49.975864,7.178712 
	C50.825771,23.645987 55.079426,39.056221 63.986828,53.054363 
z"/>
<path fill="#C283DD" opacity="1.000000" stroke="none" 
	d="
M64.228600,53.203968 
	C55.079426,39.056221 50.825771,23.645987 49.975864,7.178712 
	C49.883591,5.390897 49.334904,3.626639 48.998962,1.425727 
	C57.687565,1.000000 66.375130,1.000000 75.531128,1.431281 
	C75.982117,10.273997 75.964676,18.685432 75.655121,26.909473 
	C73.198090,22.594635 71.033173,18.467190 68.868263,14.339746 
	C66.811089,21.400713 70.913010,26.958391 73.159370,33.298782 
	C79.195915,40.405113 85.103157,47.193947 90.634460,54.033859 
	C88.156494,54.711620 86.054459,55.338299 83.490341,55.971104 
	C77.353088,55.651176 71.677925,55.325119 66.002769,54.999065 
	C65.491974,54.450565 64.981171,53.902069 64.228600,53.203968 
z"/>
<path fill="#CC82DD" opacity="1.000000" stroke="none" 
	d="
M93.000000,1.000000 
	C101.020897,1.000000 109.041801,1.000000 117.531349,1.468657 
	C118.000000,12.671666 117.885201,23.408220 118.091187,34.138618 
	C118.135513,36.448086 119.337914,38.735325 119.894730,41.285706 
	C119.516838,42.023636 119.251099,42.508659 118.627365,43.037666 
	C113.181259,45.388958 108.093140,47.696270 102.604660,50.001854 
	C101.137100,50.000694 100.069916,50.001263 98.841751,49.765495 
	C98.118713,49.028427 97.556664,48.527695 96.953125,47.658707 
	C95.305939,43.100952 92.480553,38.954483 92.330925,34.713604 
	C91.935196,23.497566 92.698181,12.240647 93.000000,1.000000 
z"/>
<path fill="#D481DE" opacity="1.000000" stroke="none" 
	d="
M120.006866,41.032799 
	C119.337914,38.735325 118.135513,36.448086 118.091187,34.138618 
	C117.885201,23.408220 118.000000,12.671666 118.000000,1.468657 
	C130.020889,1.000000 142.041794,1.000000 154.531342,1.465104 
	C155.668396,7.965323 156.336792,14.000438 156.793671,20.300797 
	C150.387680,24.041096 144.193192,27.516151 137.647308,31.034216 
	C131.532898,34.395748 125.769882,37.714272 120.006866,41.032799 
z"/>
<path fill="#FF96AF" opacity="1.000000" stroke="none" 
	d="
M273.994965,153.206024 
	C274.329956,163.824951 274.664978,174.443863 275.000000,185.531403 
	C265.979095,186.000000 256.958221,186.000000 247.428284,185.641754 
	C246.612823,181.735855 246.000198,178.183090 246.059082,174.641510 
	C246.217468,165.118942 246.662704,155.601135 246.994064,146.081421 
	C248.734909,146.321976 250.475754,146.562531 252.955872,146.891846 
	C260.461761,149.055740 267.228363,151.130875 273.994965,153.206024 
z"/>
<path fill="#FE8DB0" opacity="1.000000" stroke="none" 
	d="
M246.528015,146.052460 
	C246.662704,155.601135 246.217468,165.118942 246.059082,174.641510 
	C246.000198,178.183090 246.612823,181.735855 246.959625,185.641754 
	C245.285645,186.000000 243.571289,186.000000 241.292633,185.690063 
	C233.792480,175.103088 223.409729,169.891464 212.166458,165.944382 
	C212.166458,165.944382 212.072296,165.476608 212.166779,164.956558 
	C212.475708,163.625824 212.690155,162.815125 213.052216,161.718353 
	C213.751770,160.280060 214.303680,159.127869 214.855591,157.975677 
	C222.343369,146.382477 233.706604,144.907806 246.528015,146.052460 
z"/>
<path fill="#FE96D8" opacity="1.000000" stroke="none" 
	d="
M74.000000,186.000000 
	C73.555664,186.000000 73.111328,186.000000 72.177544,185.703156 
	C69.339607,183.315903 66.900787,181.316879 64.667648,179.109756 
	C62.362202,176.831177 60.256775,174.350250 58.002483,171.592468 
	C57.281551,168.841522 56.621979,166.455963 55.974213,163.693176 
	C55.353718,162.210587 54.721409,161.105225 54.061546,159.634186 
	C54.006077,158.535660 53.978168,157.802795 54.128300,156.736237 
	C54.870857,151.664856 55.825405,146.935150 55.922573,142.187912 
	C56.159813,130.597656 55.997173,118.999275 56.003170,107.404160 
	C56.004272,105.270782 55.561024,102.810539 59.263374,103.259460 
	C61.344898,107.681175 63.159664,111.844536 65.020721,116.349136 
	C67.052223,118.782089 69.037437,120.873802 70.787949,123.271896 
	C69.062523,128.612900 67.477196,133.624329 66.228584,138.718292 
	C66.104797,139.223297 68.037117,140.232269 68.846039,141.310272 
	C59.154896,146.662613 59.416283,153.778183 65.088593,159.923233 
	C68.268547,163.368210 72.334099,165.995743 75.823074,169.328979 
	C73.739769,174.974182 71.978325,180.296524 74.000000,186.000000 
z"/>
<path fill="#FFC4F0" opacity="1.000000" stroke="none" 
	d="
M1.000000,158.468658 
	C13.026920,160.618210 22.741920,167.372803 31.769518,175.303436 
	C35.495304,178.576477 39.060455,182.032410 42.849335,185.702576 
	C29.088093,186.000000 15.176186,186.000000 1.000000,186.000000 
	C1.000000,176.980820 1.000000,167.959076 1.000000,158.468658 
z"/>
<path fill="#E66BCE" opacity="1.000000" stroke="none" 
	d="
M330.000000,23.531263 
	C319.068146,24.657789 308.501465,23.330923 298.248810,17.646439 
	C297.578644,11.710097 297.289337,6.355049 297.000000,1.000000 
	C307.913300,1.000000 318.826599,1.000000 330.000000,1.000000 
	C330.000000,8.352139 330.000000,15.707333 330.000000,23.531263 
z"/>
<path fill="#FF90D2" opacity="1.000000" stroke="none" 
	d="
M101.055130,178.018768 
	C100.371315,180.419754 99.687508,182.820724 99.001846,185.610855 
	C94.310745,186.000000 89.621490,186.000000 84.466118,185.533203 
	C84.000710,180.049622 84.001419,175.032837 84.369904,170.003769 
	C91.496613,167.406311 94.376785,162.323242 92.676704,155.606552 
	C91.139488,149.533295 87.863205,144.720520 82.003510,141.520782 
	C82.338448,136.350418 82.675102,131.640747 83.443130,126.939705 
	C88.590179,127.610794 93.305870,128.273270 98.014137,129.410721 
	C98.004662,143.548691 97.856438,157.214691 98.137985,170.871841 
	C98.187485,173.273178 100.036934,175.637405 101.055130,178.018768 
z"/>
<path fill="#DC82DC" opacity="1.000000" stroke="none" 
	d="
M157.005188,20.035553 
	C156.336792,14.000438 155.668396,7.965323 155.000000,1.465104 
	C168.354233,1.000000 181.708450,1.000000 195.531342,1.000000 
	C196.000229,6.685938 196.000473,12.371877 195.637222,18.484135 
	C193.851471,18.599184 192.429199,18.287914 190.735458,17.705036 
	C182.591904,15.458206 174.748779,14.755406 166.593735,17.975136 
	C163.130203,18.667023 160.067703,19.351288 157.005188,20.035553 
z"/>
<path fill="#C682DD" opacity="1.000000" stroke="none" 
	d="
M92.532394,1.000000 
	C92.698181,12.240647 91.935196,23.497566 92.330925,34.713604 
	C92.480553,38.954483 95.305939,43.100952 96.600616,47.611603 
	C87.375412,43.923332 81.798935,36.331120 75.972504,28.687374 
	C75.963493,27.944597 75.955368,27.520733 75.947235,27.096869 
	C75.964676,18.685432 75.982117,10.273997 75.999779,1.431281 
	C81.354927,1.000000 86.709862,1.000000 92.532394,1.000000 
z"/>
<path fill="#FEA0E6" opacity="1.000000" stroke="none" 
	d="
M1.000000,62.468658 
	C6.689779,62.004444 12.379559,62.008888 18.535446,62.492149 
	C18.665682,75.650185 18.329811,88.329414 17.631681,100.964386 
	C11.846283,98.946747 6.423142,96.973373 1.000001,95.000000 
	C1.000000,84.312439 1.000000,73.624878 1.000000,62.468658 
z"/>
<path fill="#FEA0E5" opacity="1.000000" stroke="none" 
	d="
M23.003136,134.989166 
	C15.970960,133.991653 8.938784,132.994141 1.453304,131.998322 
	C1.000000,123.312439 1.000000,114.624870 1.417842,105.468384 
	C8.911102,105.342560 14.866913,108.232170 20.010612,113.386139 
	C20.679016,118.432953 21.342600,123.080040 21.998772,127.728180 
	C22.340311,130.147552 22.668768,132.568771 23.003136,134.989166 
z"/>
<path fill="#E26BCE" opacity="1.000000" stroke="none" 
	d="
M296.531342,1.000000 
	C297.289337,6.355049 297.578644,11.710097 297.931152,17.465466 
	C293.441528,16.601231 288.956512,14.915079 284.320251,14.170280 
	C277.248138,13.034171 270.583466,14.602195 264.445038,19.192978 
	C263.774597,13.571538 263.387299,7.718786 263.000000,1.433017 
	C274.020905,1.000000 285.041779,1.000000 296.531342,1.000000 
z"/>
<path fill="#FEA3C6" opacity="1.000000" stroke="none" 
	d="
M212.107574,166.395752 
	C223.409729,169.891464 233.792480,175.103088 240.864166,185.690063 
	C232.979095,186.000000 224.958191,186.000000 216.468643,186.000000 
	C214.682892,179.615707 213.365799,173.231415 212.107574,166.395752 
z"/>
<path fill="#FAAEE9" opacity="1.000000" stroke="none" 
	d="
M20.002714,112.986862 
	C14.866913,108.232170 8.911102,105.342560 1.417842,104.999725 
	C1.000000,101.969406 1.000000,98.938812 1.000001,95.454102 
	C6.423142,96.973373 11.846283,98.946747 17.791904,101.261688 
	C20.552130,103.205956 23.014275,104.578102 24.964506,106.476227 
	C26.914619,108.374237 28.352785,110.798256 29.695805,113.045967 
	C29.580782,115.070267 29.785322,117.040306 29.644176,118.969681 
	C26.199898,116.948296 23.101305,114.967575 20.002714,112.986862 
z"/>
<path fill="#FE92D5" opacity="1.000000" stroke="none" 
	d="
M84.002129,170.016083 
	C84.001419,175.032837 84.000710,180.049622 84.000000,185.533203 
	C80.969406,186.000000 77.938812,186.000000 74.454109,186.000000 
	C71.978325,180.296524 73.739769,174.974182 76.218216,169.384064 
	C79.194649,169.406509 81.598389,169.711288 84.002129,170.016083 
z"/>
<path fill="#FCC2CC" opacity="1.000000" stroke="none" 
	d="
M312.923889,179.270142 
	C318.419403,177.677216 323.794128,176.337173 329.584412,174.998566 
	C330.000000,178.610138 330.000000,182.220261 330.000000,186.000000 
	C324.313904,186.000000 318.626678,186.000000 312.474426,185.652283 
	C312.009460,183.869431 312.009521,182.434296 312.009552,180.999176 
	C312.274078,180.507126 312.538574,180.015076 312.923889,179.270142 
z"/>
<path fill="#FCC2CB" opacity="1.000000" stroke="none" 
	d="
M303.000000,93.000000 
	C308.408752,92.775429 313.817474,92.550858 320.062866,92.162521 
	C323.933014,91.999168 326.966492,91.999580 330.000000,92.000000 
	C330.000000,94.700012 330.000000,97.400032 330.000000,100.550018 
	C324.205475,100.861900 318.410950,100.723801 312.433655,100.089661 
	C311.510132,99.200554 310.769318,98.807472 310.815826,98.832146 
	C312.508392,97.670326 314.388702,96.379654 316.961456,94.613663 
	C311.386566,93.969315 307.193298,93.484657 303.000000,93.000000 
z"/>
<path fill="#FDCBEF" opacity="1.000000" stroke="none" 
	d="
M53.950256,157.069946 
	C53.978168,157.802795 54.006077,158.535660 54.041111,159.981613 
	C54.686291,161.819946 55.324348,162.945175 55.962402,164.070404 
	C56.621979,166.455963 57.281551,168.841522 58.024422,171.968140 
	C59.738476,177.139465 61.369236,181.569733 63.000000,186.000000 
	C61.933331,186.000000 60.866661,186.000000 59.399994,186.000000 
	C56.337151,176.604706 53.674301,167.209427 51.342945,157.407166 
	C52.118313,156.998856 52.562183,156.997513 53.242134,157.013885 
	C53.478207,157.031586 53.950256,157.069946 53.950256,157.069946 
z"/>
<path fill="#FDADE4" opacity="1.000000" stroke="none" 
	d="
M63.449982,186.000000 
	C61.369236,181.569733 59.738476,177.139465 58.085777,172.333527 
	C60.256775,174.350250 62.362202,176.831177 64.667648,179.109756 
	C66.900787,181.316879 69.339607,183.315903 71.844048,185.703156 
	C69.299988,186.000000 66.599976,186.000000 63.449982,186.000000 
z"/>
<path fill="#FEB8C3" opacity="1.000000" stroke="none" 
	d="
M330.000000,91.562500 
	C326.966492,91.999580 323.933014,91.999168 320.444214,91.994484 
	C323.081543,89.662231 326.174164,87.334244 329.633362,85.003128 
	C330.000000,87.041664 330.000000,89.083336 330.000000,91.562500 
z"/>
<path fill="#FAB3BA" opacity="1.000000" stroke="none" 
	d="
M311.643097,181.043488 
	C312.009521,182.434296 312.009460,183.869431 312.004700,185.652283 
	C308.969391,186.000000 305.938812,186.000000 302.454102,186.000000 
	C305.092224,184.362610 308.184448,182.725204 311.643097,181.043488 
z"/>
<path fill="#FEC5FE" opacity="1.000000" stroke="none" 
	d="
M231.995834,94.005157 
	C225.987793,88.777382 220.014465,83.490570 211.117004,81.939941 
	C209.989517,81.520851 209.496078,81.259056 208.961945,80.651169 
	C202.399506,70.985214 184.879715,64.557449 175.004776,76.727501 
	C172.208694,80.173416 170.967667,84.881111 169.010773,89.257523 
	C169.008087,89.504929 169.000000,89.999695 169.000000,89.999695 
	C162.981277,90.981720 156.805466,93.301971 150.982254,92.618408 
	C143.108536,91.694145 135.410873,88.732727 127.839096,86.072105 
	C125.270233,85.169441 123.312462,82.527679 121.272575,80.047951 
	C123.643219,78.885384 125.816719,78.355499 128.363434,77.838867 
	C135.831863,74.254669 142.927078,70.657211 150.289352,66.888512 
	C151.364899,66.128128 152.173401,65.538986 153.256622,65.235687 
	C154.991913,65.624878 156.467468,65.916519 157.910675,65.801651 
	C169.077255,64.912903 180.236984,63.224724 191.400024,63.215401 
	C201.554535,63.206917 211.710526,64.996140 221.807281,66.306931 
	C220.959671,75.639000 238.333969,86.745895 250.395721,82.023842 
	C251.499893,81.982170 252.235657,81.954620 253.030869,82.271896 
	C257.394012,85.744034 261.697693,88.871346 265.554443,91.999046 
	C261.487671,91.713890 257.871979,91.276802 254.247086,91.177940 
	C248.667984,91.025787 243.066833,90.862396 237.508545,91.221947 
	C235.618866,91.344193 233.830490,93.032478 231.995834,94.005157 
z"/>
<path fill="#FEC2FD" opacity="1.000000" stroke="none" 
	d="
M98.021553,128.935745 
	C93.305870,128.273270 88.590179,127.610794 83.181679,126.688675 
	C78.666786,125.274513 74.844719,124.120010 71.022644,122.965515 
	C69.037437,120.873802 67.052223,118.782089 65.435654,116.344650 
	C69.106415,116.238228 70.064682,114.469505 70.029297,111.449814 
	C69.936691,103.546471 70.055931,95.640724 69.974838,87.737122 
	C69.943306,84.664024 70.923615,83.353661 74.105957,84.517128 
	C75.009216,84.847359 76.033348,84.846970 77.002052,84.998199 
	C87.154053,90.879120 97.312782,96.815132 104.682426,106.246567 
	C110.410912,113.577690 112.838959,121.923782 110.607468,131.600128 
	C106.147316,130.941177 102.084435,129.938461 98.021553,128.935745 
z"/>
<path fill="#FEC3FD" opacity="1.000000" stroke="none" 
	d="
M214.525360,157.937744 
	C214.303680,159.127869 213.751770,160.280060 212.641388,161.703461 
	C207.182343,161.349548 202.289749,160.634949 197.372513,160.196442 
	C196.641052,160.131195 195.793671,161.365936 194.999924,161.999268 
	C194.250092,161.999481 193.500244,161.999695 192.277512,161.613312 
	C186.535446,160.833954 181.263733,160.083542 175.997635,160.121063 
	C164.128876,160.205658 152.263596,160.763107 140.394684,160.861588 
	C139.270294,160.870926 138.130295,158.996902 136.997559,157.997238 
	C146.933746,147.995087 159.195679,142.660202 172.967514,141.106140 
	C183.858307,139.877167 194.543137,141.059509 203.526917,148.347809 
	C207.229279,151.351471 210.647598,154.705276 214.525360,157.937744 
z"/>
<path fill="#FEC1FD" opacity="1.000000" stroke="none" 
	d="
M232.148071,94.303757 
	C233.830490,93.032478 235.618866,91.344193 237.508545,91.221947 
	C243.066833,90.862396 248.667984,91.025787 254.247086,91.177940 
	C257.871979,91.276802 261.487671,91.713890 265.933441,92.006699 
	C269.847992,93.005615 272.936584,93.997253 276.224609,95.089508 
	C276.682190,95.372192 276.832977,95.619644 276.876434,95.932495 
	C274.120758,102.577744 277.207428,108.727554 278.711060,114.932152 
	C279.502319,118.197174 281.328888,121.211304 282.793121,124.676659 
	C260.817230,123.553688 245.119614,111.472374 232.148071,94.303757 
z"/>
<path fill="#FEC7FE" opacity="1.000000" stroke="none" 
	d="
M76.843842,84.699203 
	C76.033348,84.846970 75.009216,84.847359 74.105957,84.517128 
	C70.923615,83.353661 69.943306,84.664024 69.974838,87.737122 
	C70.055931,95.640724 69.936691,103.546471 70.029297,111.449814 
	C70.064682,114.469505 69.106415,116.238228 65.389359,116.003410 
	C63.159664,111.844536 61.344898,107.681175 59.256851,102.862770 
	C57.491589,97.509155 56.299885,92.688034 54.443115,88.138336 
	C50.922928,79.512733 44.904663,72.875435 36.831440,67.672089 
	C35.424500,66.613930 34.212555,65.804649 33.000610,64.995369 
	C33.408909,63.064213 34.364277,61.056942 34.108463,59.218178 
	C33.617832,55.691509 35.011993,54.673737 38.583641,55.000084 
	C51.562080,64.799759 64.123856,74.599983 76.843842,84.699203 
z"/>
<path fill="#FE8ECD" opacity="1.000000" stroke="none" 
	d="
M98.014137,129.410721 
	C102.084435,129.938461 106.147316,130.941177 110.585182,132.015411 
	C122.043350,144.817108 121.826317,152.948914 110.041664,167.275497 
	C107.210640,170.717178 104.415840,174.188644 101.329758,177.832581 
	C100.036934,175.637405 98.187485,173.273178 98.137985,170.871841 
	C97.856438,157.214691 98.004662,143.548691 98.014137,129.410721 
z"/>
<path fill="#FFDCFE" opacity="1.000000" stroke="none" 
	d="
M209.002625,80.997253 
	C209.496078,81.259056 209.989517,81.520851 210.739349,81.894470 
	C211.261124,83.292953 211.537476,84.577477 211.789978,85.866669 
	C212.849289,91.275185 210.475983,96.041550 205.645233,98.706924 
	C198.247116,102.788841 190.234055,103.512878 182.076355,102.909378 
	C175.294601,102.407684 169.956787,97.175446 169.000946,90.387978 
	C169.000000,89.999695 169.008087,89.504929 169.412735,89.253494 
	C172.212143,88.379593 174.662872,87.917908 176.992004,87.106972 
	C187.368454,83.494179 197.803085,80.266289 209.002625,80.997253 
z"/>
<path fill="#FFC7FE" opacity="1.000000" stroke="none" 
	d="
M136.697891,158.149200 
	C138.130295,158.996902 139.270294,160.870926 140.394684,160.861588 
	C152.263596,160.763107 164.128876,160.205658 175.997635,160.121063 
	C181.263733,160.083542 186.535446,160.833954 191.902588,161.612610 
	C171.855469,161.052277 153.445679,167.222733 135.583084,175.699234 
	C130.335419,178.189453 125.009529,180.514786 119.359749,182.958130 
	C119.172714,181.322845 118.730545,179.148544 119.618790,178.048676 
	C125.044182,171.330704 130.771530,164.856583 136.697891,158.149200 
z"/>
<path fill="#FEC1FC" opacity="1.000000" stroke="none" 
	d="
M274.334045,153.006195 
	C267.228363,151.130875 260.461761,149.055740 253.333252,146.862640 
	C257.464111,143.741028 261.596313,139.608032 266.543732,138.028625 
	C272.316315,136.185837 278.801056,136.573761 285.430786,135.987671 
	C285.783936,138.910004 286.125885,141.938995 285.488495,144.745590 
	C284.228943,150.291519 280.001282,152.422165 274.334045,153.006195 
z"/>
<path fill="#B66BCF" opacity="1.000000" stroke="none" 
	d="
M127.990227,77.825607 
	C125.816719,78.355499 123.643219,78.885384 121.231270,79.697388 
	C115.596626,79.677040 110.200417,79.374573 104.400925,78.503799 
	C103.998314,72.290665 103.999001,66.645836 104.368279,61.047386 
	C107.158394,61.397888 109.579926,61.702011 112.334023,62.011963 
	C113.109756,62.034901 113.552933,62.052006 114.043304,62.353882 
	C114.417580,62.934147 114.744644,63.229641 115.071716,63.525139 
	C115.380920,63.017311 115.690132,62.509480 116.367096,62.001663 
	C117.837791,61.665051 118.940727,61.328419 120.278145,60.994556 
	C120.512619,60.997322 120.981567,61.002289 121.009964,61.298325 
	C121.360634,62.062103 121.682922,62.529842 122.420502,62.998444 
	C124.220535,63.015484 125.605278,63.031666 126.957710,63.325592 
	C126.949051,64.403297 126.972687,65.203262 126.997452,66.450211 
	C127.329132,70.539993 127.659676,74.182800 127.990227,77.825607 
M118.841393,64.266243 
	C118.940056,64.265518 119.038727,64.264801 118.841393,64.266243 
z"/>
<path fill="#AE6BCE" opacity="1.000000" stroke="none" 
	d="
M103.999695,61.001003 
	C103.999001,66.645836 103.998314,72.290665 103.996208,78.382050 
	C98.120781,77.105583 92.246773,75.382561 86.179977,72.932983 
	C85.861839,67.681122 85.822746,63.150410 85.539467,58.635021 
	C85.481773,57.715439 84.505333,56.853497 83.952431,55.964981 
	C86.054459,55.338299 88.156494,54.711620 90.966026,54.050114 
	C92.116104,54.028900 92.558678,54.042515 93.153740,54.356491 
	C96.870720,56.771568 100.435204,58.886288 103.999695,61.001003 
z"/>
<path fill="#A96CCE" opacity="1.000000" stroke="none" 
	d="
M83.490341,55.971107 
	C84.505333,56.853497 85.481773,57.715439 85.539467,58.635021 
	C85.822746,63.150410 85.861839,67.681122 85.981354,72.638496 
	C77.495155,69.386055 71.579033,62.760834 66.025345,55.346569 
	C71.677925,55.325119 77.353088,55.651176 83.490341,55.971107 
z"/>
<path fill="#FAAEB9" opacity="1.000000" stroke="none" 
	d="
M277.266724,95.993782 
	C276.832977,95.619644 276.682190,95.372192 276.250519,94.713959 
	C276.669159,91.812424 277.261322,89.387070 277.853516,86.961716 
	C277.853516,86.961716 277.976318,86.994286 278.035095,87.020393 
	C286.201599,88.843765 294.309326,90.641022 302.708527,92.719147 
	C307.193298,93.484657 311.386566,93.969315 316.961456,94.613663 
	C314.388702,96.379654 312.508392,97.670326 310.815826,98.832146 
	C310.769318,98.807472 311.510132,99.200554 312.130249,99.805481 
	C308.208984,100.153809 304.408386,100.290291 300.310974,100.709106 
	C292.561798,99.345978 285.109406,97.700523 277.266724,95.993782 
z"/>
<path fill="#FE9CE0" opacity="1.000000" stroke="none" 
	d="
M20.010611,113.386139 
	C23.101305,114.967575 26.199898,116.948296 29.648979,118.964645 
	C29.999468,119.000267 29.993017,119.006554 30.105198,119.222488 
	C30.417490,119.707581 30.675962,119.897186 30.996399,120.003616 
	C31.000000,120.000000 30.992725,120.007332 31.105053,120.222992 
	C31.417418,120.707489 31.675642,120.897072 31.995953,121.003708 
	C31.999847,121.000000 31.989874,121.007530 32.015495,121.302704 
	C32.359867,122.067078 32.678619,122.536278 33.150764,123.305107 
	C36.542118,128.404526 39.780079,133.204315 43.159866,138.334045 
	C45.209305,144.123077 47.116920,149.582123 49.024536,155.041183 
	C44.195568,150.360641 39.623062,145.367462 34.441341,141.116943 
	C31.338863,138.572006 27.283424,137.188797 23.329725,135.136292 
	C22.668768,132.568771 22.340311,130.147552 21.998772,127.728180 
	C21.342600,123.080040 20.679016,118.432953 20.010611,113.386139 
z"/>
<path fill="#FCBDEA" opacity="1.000000" stroke="none" 
	d="
M49.149193,155.298767 
	C47.116920,149.582123 45.209305,144.123077 43.438793,138.207443 
	C44.385700,137.162766 45.195503,136.574661 46.268349,136.222977 
	C48.689617,143.304977 50.847839,150.150574 53.006058,156.996170 
	C52.562183,156.997513 52.118313,156.998856 51.341713,157.001648 
	C50.430607,156.520859 49.852230,156.038605 49.149193,155.298767 
z"/>
<path fill="#FFC7FE" opacity="1.000000" stroke="none" 
	d="
M195.362488,162.159180 
	C195.793671,161.365936 196.641052,160.131195 197.372513,160.196442 
	C202.289749,160.634949 207.182343,161.349548 212.493759,161.989563 
	C212.690155,162.815125 212.475708,163.625824 212.116867,164.723267 
	C206.556671,164.113037 201.140869,163.216064 195.362488,162.159180 
z"/>
<path fill="#FF9CE1" opacity="1.000000" stroke="none" 
	d="
M32.619766,64.948181 
	C34.212555,65.804649 35.424500,66.613930 36.822170,68.149368 
	C37.005249,82.655365 37.080170,96.436157 36.911282,110.213966 
	C36.887592,112.146515 35.669205,114.064407 34.754257,115.990005 
	C34.504692,115.990936 34.005650,115.991722 34.002747,115.995712 
	C33.999847,115.999695 34.005909,115.994667 33.893677,115.778778 
	C33.581566,115.293655 33.323326,115.103767 33.003365,114.996628 
	C33.000000,115.000000 33.006775,114.993156 32.893372,114.776489 
	C32.578735,114.288757 32.318081,114.099525 31.743530,113.879959 
	C30.997826,113.509094 30.506594,113.250397 30.015362,112.991699 
	C28.352785,110.798256 26.914619,108.374237 24.964506,106.476227 
	C23.014275,104.578102 20.552130,103.205956 18.154160,101.305946 
	C18.329811,88.329414 18.665682,75.650185 19.003510,62.507000 
	C23.416620,62.995693 27.827774,63.948349 32.619766,64.948181 
z"/>
<path fill="#FCCCFB" opacity="1.000000" stroke="none" 
	d="
M277.482330,86.965523 
	C277.261322,89.387070 276.669159,91.812424 276.051086,94.613335 
	C272.936584,93.997253 269.847992,93.005615 266.380402,92.006317 
	C261.697693,88.871346 257.394012,85.744034 253.226761,82.016701 
	C254.924774,80.325958 256.486328,79.235229 258.047882,78.144501 
	C258.479462,78.109428 258.911041,78.074356 259.666412,78.012054 
	C265.697205,80.979668 271.404175,83.974503 277.482330,86.965523 
z"/>
<path fill="#D76BD0" opacity="1.000000" stroke="none" 
	d="
M214.998535,29.013231 
	C226.561951,31.946228 233.942123,29.118807 240.945099,19.138508 
	C242.350037,17.136250 243.905441,15.239572 245.689224,13.133814 
	C247.322571,17.293045 248.120026,21.496218 244.435944,23.659260 
	C245.399521,27.529522 246.786133,30.724943 246.889755,33.961441 
	C247.197464,43.572075 247.051468,53.199368 246.959854,62.818977 
	C246.939697,64.935036 246.411392,67.046249 245.738159,69.432236 
	C240.573013,67.802910 235.786819,65.901062 230.667191,63.999100 
	C229.888519,63.998486 229.443253,63.997986 229.000290,63.999710 
	C229.002579,64.001938 229.011581,64.005997 228.837891,63.761627 
	C228.105560,63.328156 227.546951,63.139061 226.874634,62.744293 
	C226.562057,62.283897 226.309830,62.103909 225.669739,61.998825 
	C224.889648,61.999828 224.444077,62.000656 223.822784,61.758652 
	C223.085144,61.343155 222.523178,61.170498 221.859009,60.690659 
	C221.120560,59.258041 220.484344,58.132610 219.886047,56.603344 
	C218.605392,51.470173 217.286819,46.740841 216.207184,41.813095 
	C215.963593,37.414200 215.481064,33.213718 214.998535,29.013231 
z"/>
<path fill="#E37ED9" opacity="1.000000" stroke="none" 
	d="
M231.000610,63.999214 
	C235.786819,65.901062 240.573013,67.802910 245.679001,69.845734 
	C249.887161,72.511757 253.775543,75.036819 257.855896,77.853195 
	C256.486328,79.235229 254.924774,80.325958 253.167328,81.671875 
	C252.235657,81.954620 251.499893,81.982170 250.231354,81.720383 
	C243.622711,77.867538 237.443741,74.464310 231.525223,70.656250 
	C229.364075,69.265739 227.822021,66.913055 226.373322,64.996750 
	C227.500595,64.995964 228.252060,64.997742 229.001358,64.999298 
	C228.999176,64.999092 228.996033,64.985916 229.141632,65.205505 
	C229.854584,65.293304 230.421921,65.161522 230.994110,64.772125 
	C230.999527,64.342751 231.000076,64.170982 231.000610,63.999214 
z"/>
<path fill="#D06BCF" opacity="1.000000" stroke="none" 
	d="
M214.681061,28.866220 
	C215.481064,33.213718 215.963593,37.414200 215.904694,41.670181 
	C209.173248,34.496922 200.923569,33.508579 191.871399,33.868004 
	C191.101074,30.823141 190.359543,27.990976 190.225052,25.130270 
	C190.113770,22.763210 190.719101,20.362463 191.006927,17.976643 
	C192.429199,18.287914 193.851471,18.599184 195.637787,18.951622 
	C202.122406,22.234930 208.242996,25.477070 214.681061,28.866220 
z"/>
<path fill="#D39BE4" opacity="1.000000" stroke="none" 
	d="
M93.001251,54.056129 
	C92.558678,54.042515 92.116104,54.028900 91.341965,53.999031 
	C85.103157,47.193947 79.195915,40.405113 73.447464,33.265045 
	C74.395294,31.611300 75.184334,30.308794 75.973373,29.006289 
	C81.798935,36.331120 87.375412,43.923332 96.642105,47.979858 
	C97.556664,48.527695 98.118713,49.028427 98.677391,50.064789 
	C96.783089,51.752323 94.892166,52.904224 93.001251,54.056129 
z"/>
<path fill="#D8ABE9" opacity="1.000000" stroke="none" 
	d="
M75.972504,28.687374 
	C75.184334,30.308794 74.395294,31.611300 73.318161,32.947548 
	C70.913010,26.958391 66.811089,21.400713 68.868263,14.339746 
	C71.033173,18.467190 73.198090,22.594635 75.655121,26.909473 
	C75.955368,27.520733 75.963493,27.944597 75.972504,28.687374 
z"/>
<path fill="#BB6BCF" opacity="1.000000" stroke="none" 
	d="
M119.894722,41.285706 
	C125.769882,37.714272 131.532898,34.395748 137.659897,31.457779 
	C138.347626,40.548100 138.671371,49.257862 138.546997,57.977425 
	C135.410599,57.995171 132.722321,58.003117 129.694809,58.007423 
	C128.903610,58.002987 128.451660,58.002178 127.624695,58.000893 
	C126.499702,58.000046 125.749695,57.999683 124.954178,57.626297 
	C124.394043,54.956215 123.098381,52.499439 123.528595,50.395580 
	C124.404121,46.114002 123.190117,43.818344 118.985352,42.993683 
	C119.251099,42.508659 119.516838,42.023636 119.894722,41.285706 
z"/>
<path fill="#B56CCE" opacity="1.000000" stroke="none" 
	d="
M118.627365,43.037666 
	C123.190117,43.818344 124.404121,46.114002 123.528595,50.395580 
	C123.098381,52.499439 124.394043,54.956215 124.752075,57.874187 
	C123.390839,59.330826 122.186203,60.166557 120.981567,61.002289 
	C120.981567,61.002289 120.512619,60.997322 119.899475,60.993767 
	C118.531555,60.986038 117.776787,60.981861 117.228943,60.711067 
	C118.689041,59.478939 119.942207,58.513428 121.195374,57.547913 
	C120.880981,57.063793 120.566597,56.579678 120.252205,56.095562 
	C119.169411,56.726044 118.086617,57.356529 116.604401,57.989307 
	C115.140747,57.987526 114.076523,57.983448 113.005295,57.988663 
	C112.998306,57.997952 113.017006,57.988476 112.902710,57.770485 
	C112.580872,57.285328 112.317627,57.095303 111.895981,56.755241 
	C111.195824,56.350883 110.598381,56.173695 109.667221,55.995667 
	C108.888611,55.987907 108.443718,55.980984 107.881989,55.764793 
	C107.562759,55.295395 107.306274,55.110168 106.770126,54.737991 
	C105.364723,52.985287 104.184875,51.494434 103.005028,50.003578 
	C108.093140,47.696270 113.181259,45.388958 118.627365,43.037666 
z"/>
<path fill="#C07DD8" opacity="1.000000" stroke="none" 
	d="
M102.604660,50.001854 
	C104.184875,51.494434 105.364723,52.985287 106.882202,54.951683 
	C107.421158,55.692608 107.680824,55.874886 107.998825,55.974060 
	C108.443718,55.980984 108.888611,55.987907 109.666550,56.245689 
	C109.999588,56.496552 110.000305,56.996521 110.213867,57.252472 
	C111.290619,57.668438 112.153809,57.828457 113.017006,57.988476 
	C113.017006,57.988476 112.998306,57.997952 113.001213,58.238892 
	C113.003456,58.646530 113.002785,58.813229 113.001289,59.233356 
	C113.003204,59.655712 113.005951,59.824642 112.769104,60.168724 
	C112.353493,60.897961 112.177475,61.452045 112.001457,62.006134 
	C109.579926,61.702011 107.158394,61.397888 104.368279,61.047386 
	C100.435204,58.886288 96.870720,56.771568 93.153740,54.356487 
	C94.892166,52.904224 96.783089,51.752323 98.838371,50.301125 
	C100.069916,50.001263 101.137100,50.000694 102.604660,50.001854 
M109.317551,59.911934 
	C109.610886,60.127731 109.904221,60.343525 110.197556,60.559322 
	C110.000244,60.247902 109.802940,59.936481 109.317551,59.911934 
z"/>
<path fill="#C26BCF" opacity="1.000000" stroke="none" 
	d="
M138.995132,57.967621 
	C138.671371,49.257862 138.347626,40.548100 138.011292,31.414772 
	C144.193192,27.516151 150.387680,24.041096 156.793671,20.300797 
	C160.067703,19.351288 163.130203,18.667023 166.651642,18.392429 
	C167.520615,25.012882 167.714020,31.249252 168.443222,37.422329 
	C168.751328,40.030437 170.187500,42.505283 170.944183,45.334976 
	C168.179352,48.749474 165.581253,51.869701 162.706238,55.099869 
	C161.679916,55.859863 160.930527,56.509914 159.748260,57.107704 
	C157.880554,57.047440 156.445709,57.039440 154.566345,57.023037 
	C149.079605,57.332298 144.037369,57.649960 138.995132,57.967621 
z"/>
<path fill="#FE99DC" opacity="1.000000" stroke="none" 
	d="
M35.003822,115.989082 
	C35.669205,114.064407 36.887592,112.146515 36.911282,110.213966 
	C37.080170,96.436157 37.005249,82.655365 37.017170,68.398239 
	C44.904663,72.875435 50.922928,79.512733 54.443115,88.138336 
	C56.299885,92.688034 57.491589,97.509155 58.990101,102.604416 
	C55.561024,102.810539 56.004272,105.270782 56.003170,107.404160 
	C55.997173,118.999275 56.159813,130.597656 55.922573,142.187912 
	C55.825405,146.935150 54.870857,151.664856 54.128300,156.736237 
	C53.950256,157.069946 53.478207,157.031586 53.242134,157.013885 
	C50.847839,150.150574 48.689617,143.304977 46.224785,135.856689 
	C42.286739,129.166641 38.655308,123.079285 35.018265,116.741226 
	C35.009701,116.323380 35.006760,116.156235 35.003822,115.989082 
z"/>
<path fill="#FEABE0" opacity="1.000000" stroke="none" 
	d="
M84.369904,170.003784 
	C81.598389,169.711288 79.194649,169.406509 76.395767,169.046661 
	C72.334099,165.995743 68.268547,163.368210 65.088593,159.923233 
	C59.416283,153.778183 59.154896,146.662613 69.300179,141.308838 
	C73.950691,141.330154 77.977951,141.655823 82.005211,141.981491 
	C87.863205,144.720520 91.139488,149.533295 92.676704,155.606552 
	C94.376785,162.323242 91.496613,167.406311 84.369904,170.003784 
z"/>
<path fill="#FE94D6" opacity="1.000000" stroke="none" 
	d="
M82.003510,141.520782 
	C77.977951,141.655823 73.950691,141.330154 69.469284,141.005905 
	C68.037117,140.232269 66.104797,139.223297 66.228584,138.718292 
	C67.477196,133.624329 69.062523,128.612900 70.787949,123.271896 
	C74.844719,124.120010 78.666786,125.274513 82.750305,126.680054 
	C82.675102,131.640747 82.338448,136.350418 82.003510,141.520782 
z"/>
<path fill="#FE99DC" opacity="1.000000" stroke="none" 
	d="
M55.974213,163.693176 
	C55.324348,162.945175 54.686291,161.819946 54.068672,160.347290 
	C54.721409,161.105225 55.353718,162.210587 55.974213,163.693176 
z"/>
<path fill="#C96BCF" opacity="1.000000" stroke="none" 
	d="
M171.110931,45.040707 
	C170.187500,42.505283 168.751328,40.030437 168.443222,37.422329 
	C167.714020,31.249252 167.520615,25.012882 167.052673,18.384809 
	C174.748779,14.755406 182.591904,15.458206 190.735443,17.705032 
	C190.719101,20.362463 190.113770,22.763210 190.225052,25.130270 
	C190.359543,27.990976 191.101074,30.823141 191.600143,34.130505 
	C188.663956,35.618614 185.525848,36.301254 182.793869,37.749851 
	C178.748337,39.894955 174.990982,42.583515 171.110931,45.040707 
z"/>
<path fill="#F9B1E7" opacity="1.000000" stroke="none" 
	d="
M35.023880,116.991928 
	C38.655308,123.079285 42.286739,129.166641 45.961735,135.620285 
	C45.195503,136.574661 44.385700,137.162766 43.296967,137.877472 
	C39.780079,133.204315 36.542118,128.404526 33.126621,123.008789 
	C32.629349,121.944405 32.309608,121.475967 31.989872,121.007530 
	C31.989874,121.007530 31.999847,121.000000 31.884323,120.787460 
	C31.568827,120.305450 31.310135,120.116249 30.992725,120.007332 
	C30.992725,120.007332 31.000000,120.000000 30.884556,119.787392 
	C30.569023,119.305328 30.310326,119.115921 29.993017,119.006554 
	C29.993017,119.006554 29.999468,119.000267 29.994665,119.005302 
	C29.785322,117.040306 29.580782,115.070267 29.695801,113.045967 
	C30.506594,113.250397 30.997826,113.509094 31.858185,114.095772 
	C32.428799,114.693405 32.688618,114.883202 33.006775,114.993156 
	C33.006775,114.993156 33.000000,115.000000 33.115314,115.212730 
	C33.430649,115.694740 33.689075,115.884476 34.005909,115.994667 
	C34.005909,115.994667 33.999847,115.999695 34.116791,116.213478 
	C34.437714,116.698593 34.701096,116.886818 35.023880,116.991928 
z"/>
<path fill="#FDD0FC" opacity="1.000000" stroke="none" 
	d="
M160.181122,57.159966 
	C160.930527,56.509914 161.679916,55.859863 163.087494,55.268452 
	C169.294312,55.218346 174.853165,54.842552 180.389542,55.054211 
	C193.548065,55.557278 206.695938,56.338409 219.848114,57.007187 
	C220.484344,58.132610 221.120560,59.258041 221.640808,60.793396 
	C221.248260,61.408165 221.094254,61.681973 221.056244,62.323410 
	C221.395721,63.075558 221.741760,63.529037 222.052856,64.317917 
	C221.967239,65.099838 221.916550,65.546379 221.865875,65.992912 
	C211.710526,64.996140 201.554535,63.206917 191.400024,63.215401 
	C180.236984,63.224724 169.077255,64.912903 157.910675,65.801651 
	C156.467468,65.916519 154.991913,65.624878 153.337616,65.006058 
	C153.326248,64.206520 153.574799,64.003456 154.175873,63.791542 
	C154.682831,63.158825 154.903458,62.615963 155.330261,62.044113 
	C155.536423,62.015129 155.944382,61.931870 156.186707,61.882896 
	C156.745621,61.682251 156.956039,61.438824 157.307404,60.893131 
	C158.430054,59.508400 159.305588,58.334183 160.181122,57.159966 
z"/>
<path fill="#FFD2FF" opacity="1.000000" stroke="none" 
	d="
M208.961945,80.651169 
	C197.803085,80.266289 187.368454,83.494179 176.992004,87.106972 
	C174.662872,87.917908 172.212143,88.379593 169.415421,89.006096 
	C170.967667,84.881111 172.208694,80.173416 175.004776,76.727501 
	C184.879715,64.557449 202.399506,70.985214 208.961945,80.651169 
z"/>
<path fill="#D76DCF" opacity="1.000000" stroke="none" 
	d="
M221.807281,66.306931 
	C221.916550,65.546379 221.967239,65.099838 222.273682,64.322701 
	C222.529465,63.992096 222.972275,63.994743 223.190643,64.250183 
	C224.275436,64.673477 225.141861,64.841331 226.005173,65.005577 
	C226.002075,65.001968 225.997543,64.999313 225.997543,64.999313 
	C227.822021,66.913055 229.364075,69.265739 231.525223,70.656250 
	C237.443741,74.464310 243.622711,77.867538 249.862946,81.734512 
	C238.333969,86.745895 220.959671,75.639000 221.807281,66.306931 
z"/>
<path fill="#BE6CCF" opacity="1.000000" stroke="none" 
	d="
M128.363434,77.838867 
	C127.659676,74.182800 127.329132,70.539993 127.465820,66.449051 
	C132.343613,66.000206 136.762192,66.147209 141.159805,65.908249 
	C142.468842,65.837112 143.719055,64.682976 145.413300,64.017113 
	C147.221085,64.010681 148.611771,64.012192 150.002045,64.394089 
	C150.008530,65.536232 150.015411,66.297989 150.022308,67.059746 
	C142.927078,70.657211 135.831863,74.254669 128.363434,77.838867 
z"/>
<path fill="#BC6ECD" opacity="1.000000" stroke="none" 
	d="
M150.289352,66.888512 
	C150.015411,66.297989 150.008530,65.536232 150.209534,64.143738 
	C151.574783,63.635799 152.732162,63.758595 153.889542,63.881393 
	C153.574799,64.003456 153.326248,64.206520 153.062897,64.720215 
	C152.173401,65.538986 151.364899,66.128128 150.289352,66.888512 
z"/>
<path fill="#BE72CF" opacity="1.000000" stroke="none" 
	d="
M155.944382,61.931870 
	C155.944382,61.931870 155.536423,62.015129 154.858795,62.019264 
	C146.164337,62.018597 138.146225,61.931774 130.131332,62.054607 
	C127.418442,62.096180 124.713676,62.668049 122.005203,62.997581 
	C121.682922,62.529842 121.360634,62.062103 121.009964,61.298325 
	C122.186203,60.166557 123.390839,59.330826 124.797585,58.247208 
	C125.749695,57.999683 126.499702,58.000046 127.625137,58.328297 
	C128.001892,59.092754 128.003204,59.529331 127.722733,60.032928 
	C127.368362,60.339016 127.279846,60.575672 127.242935,60.820122 
	C127.238190,60.851505 127.501495,60.969765 127.640686,60.969852 
	C136.419571,60.975399 145.198456,60.972855 154.266907,60.998886 
	C155.019104,61.328449 155.481735,61.630157 155.944382,61.931870 
z"/>
<path fill="#CE82DD" opacity="1.000000" stroke="none" 
	d="
M122.420502,62.998444 
	C124.713676,62.668049 127.418442,62.096180 130.131332,62.054607 
	C138.146225,61.931774 146.164337,62.018597 154.652634,62.048248 
	C154.903458,62.615963 154.682831,63.158825 154.175873,63.791542 
	C152.732162,63.758595 151.574783,63.635799 150.209930,63.763359 
	C148.611771,64.012192 147.221085,64.010681 144.947479,64.008553 
	C138.373047,63.687912 132.681534,63.367882 126.990013,63.047848 
	C125.605278,63.031666 124.220535,63.015484 122.420502,62.998444 
z"/>
<path fill="#BC6ECD" opacity="1.000000" stroke="none" 
	d="
M126.957710,63.325592 
	C132.681534,63.367882 138.373047,63.687912 144.530396,64.016502 
	C143.719055,64.682976 142.468842,65.837112 141.159805,65.908249 
	C136.762192,66.147209 132.343613,66.000206 127.464691,66.002075 
	C126.972687,65.203262 126.949051,64.403297 126.957710,63.325592 
z"/>
<path fill="#CE82DD" opacity="1.000000" stroke="none" 
	d="
M112.334023,62.011963 
	C112.177475,61.452045 112.353493,60.897961 113.118668,60.173321 
	C114.812561,60.327744 115.917282,60.652714 117.022011,60.977684 
	C117.776787,60.981861 118.531555,60.986038 119.665001,60.991001 
	C118.940727,61.328419 117.837791,61.665051 116.032867,61.999973 
	C114.885963,62.021881 114.441032,62.045498 113.996101,62.069115 
	C113.552933,62.052006 113.109756,62.034901 112.334023,62.011963 
z"/>
<path fill="#BC6ECD" opacity="1.000000" stroke="none" 
	d="
M114.043304,62.353882 
	C114.441032,62.045498 114.885963,62.021881 115.665115,61.999958 
	C115.690132,62.509480 115.380920,63.017311 115.071716,63.525139 
	C114.744644,63.229641 114.417580,62.934147 114.043304,62.353882 
z"/>
<path fill="#BC6ECD" opacity="1.000000" stroke="none" 
	d="
M118.989395,64.265160 
	C119.038727,64.264801 118.940056,64.265518 118.989395,64.265160 
z"/>
<path fill="#FAAEE9" opacity="1.000000" stroke="none" 
	d="
M32.015495,121.302704 
	C32.309608,121.475967 32.629349,121.944405 32.973228,122.709152 
	C32.678619,122.536278 32.359867,122.067078 32.015495,121.302704 
z"/>
<path fill="#FAAEE9" opacity="1.000000" stroke="none" 
	d="
M31.105053,120.222992 
	C31.310135,120.116249 31.568827,120.305450 31.880426,120.791168 
	C31.675642,120.897072 31.417418,120.707489 31.105053,120.222992 
z"/>
<path fill="#FAAEE9" opacity="1.000000" stroke="none" 
	d="
M30.105198,119.222488 
	C30.310326,119.115921 30.569023,119.305328 30.880955,119.791016 
	C30.675962,119.897186 30.417490,119.707581 30.105198,119.222488 
z"/>
<path fill="#FAAEE9" opacity="1.000000" stroke="none" 
	d="
M35.018265,116.741226 
	C34.701096,116.886818 34.437714,116.698593 34.119694,116.209488 
	C34.005650,115.991722 34.504692,115.990936 34.754257,115.990005 
	C35.006760,116.156235 35.009701,116.323380 35.018265,116.741226 
z"/>
<path fill="#FAAEE9" opacity="1.000000" stroke="none" 
	d="
M33.893677,115.778778 
	C33.689075,115.884476 33.430649,115.694740 33.118675,115.209351 
	C33.323326,115.103767 33.581566,115.293655 33.893677,115.778778 
z"/>
<path fill="#FAAEE9" opacity="1.000000" stroke="none" 
	d="
M32.893372,114.776489 
	C32.688618,114.883202 32.428799,114.693405 32.112659,114.207947 
	C32.318081,114.099525 32.578735,114.288757 32.893372,114.776489 
z"/>
<path fill="#FEC9FE" opacity="1.000000" stroke="none" 
	d="
M219.886032,56.603348 
	C206.695938,56.338409 193.548065,55.557278 180.389542,55.054211 
	C174.853165,54.842552 169.294312,55.218346 163.364410,55.158508 
	C165.581253,51.869701 168.179352,48.749474 170.944183,45.334976 
	C174.990982,42.583515 178.748337,39.894955 182.793869,37.749851 
	C185.525848,36.301254 188.663956,35.618614 191.891663,34.330856 
	C200.923569,33.508579 209.173248,34.496922 215.665771,41.868591 
	C217.286819,46.740841 218.605392,51.470173 219.886032,56.603348 
z"/>
<path fill="#D66FCE" opacity="1.000000" stroke="none" 
	d="
M229.003540,64.999512 
	C228.252060,64.997742 227.500595,64.995964 226.373322,64.996750 
	C225.997543,64.999313 226.002075,65.001968 226.001862,64.752647 
	C226.001297,64.334763 226.000961,64.166191 226.001419,63.759583 
	C226.002228,63.521545 226.007996,63.045506 226.007355,62.783791 
	C226.005905,62.347603 226.005081,62.173126 226.004257,61.998653 
	C226.309830,62.103909 226.562057,62.283897 227.039948,62.999557 
	C227.883179,63.642330 228.447372,63.824162 229.011581,64.005997 
	C229.011581,64.005997 229.002579,64.001938 229.001007,64.250298 
	C229.000809,64.665611 229.002182,64.832558 229.003540,64.999512 
z"/>
<path fill="#E685DD" opacity="1.000000" stroke="none" 
	d="
M221.062820,62.024746 
	C221.094254,61.681973 221.248260,61.408165 221.743042,61.100582 
	C222.523178,61.170498 223.085144,61.343155 223.823608,61.757835 
	C224.000137,61.999863 224.003937,61.994110 223.635818,61.997849 
	C222.532745,62.009312 221.797775,62.017029 221.062820,62.024746 
z"/>
<path fill="#E685DD" opacity="1.000000" stroke="none" 
	d="
M228.837891,63.761627 
	C228.447372,63.824162 227.883179,63.642330 227.153656,63.205231 
	C227.546951,63.139061 228.105560,63.328156 228.837891,63.761627 
z"/>
<path fill="#E685DD" opacity="1.000000" stroke="none" 
	d="
M225.669739,61.998825 
	C226.005081,62.173126 226.005905,62.347603 225.710510,62.744644 
	C224.944168,62.642845 224.474045,62.318478 224.003937,61.994110 
	C224.003937,61.994110 224.000137,61.999863 223.999313,62.000675 
	C224.444077,62.000656 224.889648,61.999828 225.669739,61.998825 
z"/>
<path fill="#E88ADE" opacity="1.000000" stroke="none" 
	d="
M229.001358,64.999298 
	C229.002182,64.832558 229.000809,64.665611 228.998718,64.248070 
	C229.443253,63.997986 229.888519,63.998486 230.667191,63.999100 
	C231.000076,64.170982 230.999527,64.342751 230.662231,64.760498 
	C229.882339,64.999626 229.439194,64.992767 228.996033,64.985916 
	C228.996033,64.985916 228.999176,64.999092 229.001358,64.999298 
z"/>
<path fill="#D66FCE" opacity="1.000000" stroke="none" 
	d="
M229.141632,65.205505 
	C229.439194,64.992767 229.882339,64.999626 230.657379,65.018112 
	C230.421921,65.161522 229.854584,65.293304 229.141632,65.205505 
z"/>
<path fill="#D584DE" opacity="1.000000" stroke="none" 
	d="
M156.186707,61.882896 
	C155.481735,61.630157 155.019104,61.328449 154.091522,60.763321 
	C153.072800,60.326736 152.519043,60.153576 151.667618,59.692039 
	C148.596878,59.268604 145.820938,59.175541 143.051346,58.988827 
	C138.710007,58.696144 134.372925,58.340206 130.034042,58.011059 
	C132.722321,58.003117 135.410599,57.995171 138.546997,57.977425 
	C144.037369,57.649960 149.079605,57.332298 154.619049,57.350952 
	C155.764267,58.826061 156.412277,59.964851 157.060303,61.103642 
	C156.956039,61.438824 156.745621,61.682251 156.186707,61.882896 
z"/>
<path fill="#BD6ECD" opacity="1.000000" stroke="none" 
	d="
M129.694809,58.007423 
	C134.372925,58.340206 138.710007,58.696144 143.051346,58.988827 
	C145.820938,59.175541 148.596878,59.268604 151.202835,59.695145 
	C143.358643,59.979721 135.681595,59.972809 128.004532,59.965904 
	C128.003204,59.529331 128.001892,59.092754 128.000137,58.328777 
	C128.451660,58.002178 128.903610,58.002987 129.694809,58.007423 
z"/>
<path fill="#BE72CF" opacity="1.000000" stroke="none" 
	d="
M117.228943,60.711067 
	C115.917282,60.652714 114.812561,60.327744 113.358261,59.998169 
	C113.005951,59.824642 113.003204,59.655712 113.366470,59.239075 
	C114.822929,58.656586 115.913376,58.321800 117.003822,57.987015 
	C118.086617,57.356529 119.169411,56.726044 120.252205,56.095562 
	C120.566597,56.579678 120.880981,57.063793 121.195374,57.547913 
	C119.942207,58.513428 118.689041,59.478939 117.228943,60.711067 
z"/>
<path fill="#CA84DE" opacity="1.000000" stroke="none" 
	d="
M116.604401,57.989311 
	C115.913376,58.321800 114.822929,58.656586 113.367294,58.985649 
	C113.002785,58.813229 113.003456,58.646530 113.008209,58.229603 
	C114.076523,57.983448 115.140747,57.987526 116.604401,57.989311 
z"/>
<path fill="#CA84DE" opacity="1.000000" stroke="none" 
	d="
M112.902710,57.770485 
	C112.153809,57.828457 111.290619,57.668438 110.546967,57.252373 
	C111.110565,56.991688 111.554634,56.987049 111.998695,56.982414 
	C112.317627,57.095303 112.580872,57.285328 112.902710,57.770485 
z"/>
<path fill="#B771CE" opacity="1.000000" stroke="none" 
	d="
M111.895981,56.755241 
	C111.554634,56.987049 111.110565,56.991688 110.333405,56.996422 
	C110.000305,56.996521 109.999588,56.496552 110.000259,56.246529 
	C110.598381,56.173695 111.195824,56.350883 111.895981,56.755241 
z"/>
<path fill="#B771CE" opacity="1.000000" stroke="none" 
	d="
M107.881989,55.764793 
	C107.680824,55.874886 107.421158,55.692608 107.107758,55.213531 
	C107.306274,55.110168 107.562759,55.295395 107.881989,55.764793 
z"/>
<path fill="#B66BCF" opacity="1.000000" stroke="none" 
	d="
M109.461594,59.768494 
	C109.802940,59.936481 110.000244,60.247902 110.197556,60.559322 
	C109.904221,60.343525 109.610886,60.127731 109.461594,59.768494 
z"/>
<path fill="#D78AE2" opacity="1.000000" stroke="none" 
	d="
M157.307404,60.893131 
	C156.412277,59.964851 155.764267,58.826061 155.063553,57.359356 
	C156.445709,57.039440 157.880554,57.047440 159.748260,57.107704 
	C159.305588,58.334183 158.430054,59.508400 157.307404,60.893131 
z"/>
<path fill="#D56ECE" opacity="1.000000" stroke="none" 
	d="
M223.635818,61.997849 
	C224.474045,62.318478 224.944168,62.642845 225.711136,63.006363 
	C226.007996,63.045506 226.002228,63.521545 225.623215,63.760979 
	C224.486893,63.998524 223.729584,63.996632 222.972275,63.994743 
	C222.972275,63.994743 222.529465,63.992096 222.308640,63.987309 
	C221.741760,63.529037 221.395721,63.075558 221.056244,62.323410 
	C221.797775,62.017029 222.532745,62.009312 223.635818,61.997849 
z"/>
<path fill="#E588DF" opacity="1.000000" stroke="none" 
	d="
M223.190643,64.250183 
	C223.729584,63.996632 224.486893,63.998524 225.622406,63.999016 
	C226.000961,64.166191 226.001297,64.334763 226.004959,64.756256 
	C225.141861,64.841331 224.275436,64.673477 223.190643,64.250183 
z"/>
<path fill="#D78AE2" opacity="1.000000" stroke="none" 
	d="
M127.722733,60.032925 
	C135.681595,59.972809 143.358643,59.979721 151.500488,59.983521 
	C152.519043,60.153576 153.072800,60.326736 153.801956,60.735466 
	C145.198456,60.972855 136.419571,60.975399 127.640686,60.969852 
	C127.501495,60.969765 127.238190,60.851505 127.242935,60.820122 
	C127.279846,60.575672 127.368362,60.339016 127.722733,60.032925 
z"/>
</svg>